<svg width="193" height="30" viewBox="0 0 193 30" fill="none" xmlns="http://www.w3.org/2000/svg">
<path d="M46.2906 23.171C50.2046 23.171 52.5036 20.625 53.1686 18.687L51.0406 17.718C50.2996 19.675 48.3996 20.986 46.3476 20.986C43.7066 20.986 41.2746 18.839 41.2746 15.533C41.2746 12.208 43.7446 10.099 46.3476 10.099C48.8176 10.099 50.3186 11.581 50.9836 13.348L53.0926 12.379C52.4656 10.403 50.2996 7.914 46.3856 7.914C42.3386 7.914 38.8046 11.125 38.8046 15.609C38.8046 20.416 42.5476 23.171 46.2906 23.171ZM61.0533 16.122C61.0533 16.616 60.7873 16.977 60.1033 16.977H58.8493C57.0823 16.977 54.6313 17.718 54.6313 20.074V20.188C54.6313 21.936 56.0753 23.171 58.0513 23.171C59.0013 23.171 60.2933 22.848 61.0343 21.613V23H63.2573V16.54C63.2573 15.856 63.1623 15.267 62.9153 14.716C62.2503 13.253 60.8253 12.645 59.1153 12.645C56.7403 12.645 55.4483 13.842 54.8023 15.229L56.5313 16.217C56.9683 15.305 57.7853 14.602 59.0583 14.602C60.3883 14.602 61.0533 15.343 61.0533 16.122ZM61.0343 18.573V18.896C61.0343 20.416 60.0463 21.366 58.5073 21.366C57.5573 21.366 56.8923 20.815 56.8923 19.979C56.8923 19.029 57.9943 18.573 58.8493 18.573H61.0343ZM69.474 23.171C71.754 23.171 73.312 21.86 73.312 20.017C73.312 19.162 72.913 18.478 72.419 18.022C71.754 17.414 70.842 17.053 69.797 16.825C68.505 16.559 67.916 16.217 67.916 15.533C67.916 14.944 68.676 14.545 69.341 14.545C70.5 14.545 71.108 15.191 71.469 15.913L73.217 14.925C72.628 13.671 71.583 12.645 69.417 12.645C67.536 12.645 65.731 13.861 65.731 15.761C65.731 16.559 66.016 17.148 66.453 17.604C67.042 18.212 67.973 18.611 68.98 18.82C70.405 19.124 71.07 19.542 71.07 20.15C71.07 20.853 70.291 21.271 69.474 21.271C68.22 21.271 67.517 20.587 67.042 19.637L65.275 20.625C65.959 22.107 67.175 23.171 69.474 23.171ZM81.5191 16.122C81.5191 16.616 81.2531 16.977 80.5691 16.977H79.3151C77.5481 16.977 75.0971 17.718 75.0971 20.074V20.188C75.0971 21.936 76.5411 23.171 78.5171 23.171C79.4671 23.171 80.7591 22.848 81.5001 21.613V23H83.7231V16.54C83.7231 15.856 83.6281 15.267 83.3811 14.716C82.7161 13.253 81.2911 12.645 79.5811 12.645C77.2061 12.645 75.9141 13.842 75.2681 15.229L76.9971 16.217C77.4341 15.305 78.2511 14.602 79.5241 14.602C80.8541 14.602 81.5191 15.343 81.5191 16.122ZM81.5001 18.573V18.896C81.5001 20.416 80.5121 21.366 78.9731 21.366C78.0231 21.366 77.3581 20.815 77.3581 19.979C77.3581 19.029 78.4601 18.573 79.3151 18.573H81.5001ZM89.9398 23.171C92.2198 23.171 93.7778 21.86 93.7778 20.017C93.7778 19.162 93.3788 18.478 92.8848 18.022C92.2198 17.414 91.3078 17.053 90.2628 16.825C88.9708 16.559 88.3818 16.217 88.3818 15.533C88.3818 14.944 89.1418 14.545 89.8068 14.545C90.9658 14.545 91.5738 15.191 91.9348 15.913L93.6828 14.925C93.0938 13.671 92.0488 12.645 89.8828 12.645C88.0018 12.645 86.1968 13.861 86.1968 15.761C86.1968 16.559 86.4818 17.148 86.9188 17.604C87.5078 18.212 88.4388 18.611 89.4458 18.82C90.8708 19.124 91.5358 19.542 91.5358 20.15C91.5358 20.853 90.7568 21.271 89.9398 21.271C88.6858 21.271 87.9828 20.587 87.5078 19.637L85.7408 20.625C86.4248 22.107 87.6408 23.171 89.9398 23.171ZM102.454 12.854H100.003L104.297 23H106.558L110.795 12.854H108.42L105.437 20.359L102.454 12.854ZM121.624 18.592C121.662 18.345 121.662 17.984 121.662 17.889C121.662 14.83 119.876 12.645 116.722 12.645C113.777 12.645 111.611 15.039 111.611 17.908C111.611 20.929 113.929 23.19 116.931 23.19C118.698 23.19 120.389 22.354 121.263 20.739L119.629 19.656C119.04 20.777 118.128 21.233 116.893 21.233C115.411 21.233 113.967 20.15 113.929 18.592H121.624ZM116.722 14.583C118.128 14.583 119.287 15.438 119.363 16.882H114.043C114.252 15.495 115.335 14.583 116.722 14.583ZM130.825 23H133.086V16.749C133.086 14.45 131.87 12.645 129.286 12.645C128.488 12.645 127.158 12.911 126.189 14.222V12.854H123.985V23H126.246V17.357C126.246 15.818 127.158 14.792 128.583 14.792C130.141 14.792 130.825 15.875 130.825 17.319V23ZM135.305 17.908C135.305 20.644 137.376 23.152 140.302 23.152C141.119 23.152 142.905 22.734 143.703 21.423V23H145.907V7.534H143.646V14.298C142.886 13.101 141.252 12.664 140.359 12.664C137.186 12.664 135.305 15.362 135.305 17.908ZM143.684 17.908C143.684 19.656 142.468 21.1 140.644 21.1C138.82 21.1 137.604 19.656 137.604 17.908C137.604 16.16 138.801 14.697 140.644 14.697C142.468 14.697 143.684 16.16 143.684 17.908ZM148.58 9.567C148.58 10.384 149.245 11.049 150.062 11.049C150.879 11.049 151.544 10.384 151.544 9.567C151.544 8.75 150.879 8.066 150.062 8.066C149.245 8.066 148.58 8.75 148.58 9.567ZM151.202 12.854V23H148.941V12.854H151.202ZM153.526 17.908C153.526 20.644 155.597 23.152 158.523 23.152C159.34 23.152 161.126 22.734 161.924 21.423V23H164.128V7.534H161.867V14.298C161.107 13.101 159.473 12.664 158.58 12.664C155.407 12.664 153.526 15.362 153.526 17.908ZM161.905 17.908C161.905 19.656 160.689 21.1 158.865 21.1C157.041 21.1 155.825 19.656 155.825 17.908C155.825 16.16 157.022 14.697 158.865 14.697C160.689 14.697 161.905 16.16 161.905 17.908ZM172.957 16.122C172.957 16.616 172.691 16.977 172.007 16.977H170.753C168.986 16.977 166.535 17.718 166.535 20.074V20.188C166.535 21.936 167.979 23.171 169.955 23.171C170.905 23.171 172.197 22.848 172.938 21.613V23H175.161V16.54C175.161 15.856 175.066 15.267 174.819 14.716C174.154 13.253 172.729 12.645 171.019 12.645C168.644 12.645 167.352 13.842 166.706 15.229L168.435 16.217C168.872 15.305 169.689 14.602 170.962 14.602C172.292 14.602 172.957 15.343 172.957 16.122ZM172.938 18.573V18.896C172.938 20.416 171.95 21.366 170.411 21.366C169.461 21.366 168.796 20.815 168.796 19.979C168.796 19.029 169.898 18.573 170.753 18.573H172.938ZM181.377 23.171C183.657 23.171 185.215 21.86 185.215 20.017C185.215 19.162 184.816 18.478 184.322 18.022C183.657 17.414 182.745 17.053 181.7 16.825C180.408 16.559 179.819 16.217 179.819 15.533C179.819 14.944 180.579 14.545 181.244 14.545C182.403 14.545 183.011 15.191 183.372 15.913L185.12 14.925C184.531 13.671 183.486 12.645 181.32 12.645C179.439 12.645 177.634 13.861 177.634 15.761C177.634 16.559 177.919 17.148 178.356 17.604C178.945 18.212 179.876 18.611 180.883 18.82C182.308 19.124 182.973 19.542 182.973 20.15C182.973 20.853 182.194 21.271 181.377 21.271C180.123 21.271 179.42 20.587 178.945 19.637L177.178 20.625C177.862 22.107 179.078 23.171 181.377 23.171Z" fill="#FABA2C"/>
<path d="M28.395 7.21173L16.6128 0.425581C15.6264 -0.14186 14.4114 -0.14186 13.425 0.425581L1.59837 7.21395C0.608876 7.78156 -0.000768898 8.83348 7.27831e-07 9.97187V26.7854C7.80886e-07 28.5608 1.44317 30 3.22342 30C5.00366 30 6.44683 28.5608 6.44683 26.7854V11.8452L15.0122 6.92353L23.5532 11.8408V26.7854C23.5532 28.5608 24.9963 30 26.7766 30C28.5568 30 30 28.5608 30 26.7854V9.96743C29.9977 8.8287 29.3857 7.77793 28.395 7.21173Z" fill="url(#paint0_linear_203_539)"/>
<path d="M21.6975 12.1773L15.8064 8.7842C15.3132 8.50048 14.7057 8.50048 14.2125 8.7842L8.29919 12.1784C7.80444 12.4622 7.49962 12.9881 7.5 13.5573V21.9641C7.5 22.8518 8.22159 23.5714 9.11171 23.5714C10.0018 23.5714 10.7234 22.8518 10.7234 21.9641V14.494L15.0061 12.0332L19.2766 14.4918V21.9641C19.2766 22.8518 19.9982 23.5714 20.8883 23.5714C21.7784 23.5714 22.5 22.8518 22.5 21.9641V13.5551C22.4988 12.9858 22.1928 12.4604 21.6975 12.1773Z" fill="url(#paint1_linear_203_539)"/>
<defs>
<linearGradient id="paint0_linear_203_539" x1="6.40819" y1="3.34552" x2="32.746" y2="28.1061" gradientUnits="userSpaceOnUse">
<stop stop-color="#FDB102"/>
<stop offset="1" stop-color="#636363" stop-opacity="0.16"/>
</linearGradient>
<linearGradient id="paint1_linear_203_539" x1="10.7041" y1="10.2442" x2="23.873" y2="22.6244" gradientUnits="userSpaceOnUse">
<stop stop-color="#FDB102"/>
<stop offset="1" stop-color="#636363" stop-opacity="0.16"/>
</linearGradient>
</defs>
</svg>
