<svg xmlns="http://www.w3.org/2000/svg" width="26" height="26" viewBox="0 0 26 26">
    <g fill="none" fill-rule="evenodd">
        <circle cx="13" cy="13" r="13" fill="#FFF"/>
        <path fill="#2E2158" d="M20.993 17.049a.652.652 0 0 1-.222.593l-2.112 1.957c-.096.1-.22.183-.374.253-.153.069-.304.113-.452.133l-.095.008a2.314 2.314 0 0 1-.207.007c-.201 0-.527-.032-.976-.096-.45-.065-1-.223-1.652-.475-.651-.252-1.39-.63-2.215-1.135-.826-.504-1.704-1.196-2.636-2.076-.741-.682-1.355-1.335-1.842-1.957a13.855 13.855 0 0 1-1.175-1.728 8.993 8.993 0 0 1-.667-1.439c-.148-.43-.249-.8-.302-1.112a3.436 3.436 0 0 1-.063-.734c.01-.178.016-.277.016-.297.02-.138.068-.279.142-.422.075-.144.165-.26.27-.349l2.112-1.972A.724.724 0 0 1 9.052 6a.62.62 0 0 1 .365.111c.106.074.196.166.27.275l1.699 3.01a.68.68 0 0 1 .08.52.907.907 0 0 1-.27.474l-.779.727a.243.243 0 0 0-.055.096.345.345 0 0 0-.024.111c.042.208.137.445.286.712.127.237.322.526.587.868.265.34.64.734 1.128 1.179.476.454.9.808 1.27 1.06s.68.437.929.556c.249.119.44.19.572.215l.198.037a.401.401 0 0 0 .103-.022.271.271 0 0 0 .103-.052l.906-.86c.19-.158.412-.237.667-.237.18 0 .322.03.428.089h.016l3.065 1.69c.222.129.354.292.397.49z"/>
    </g>
</svg>
