<?xml version="1.0" encoding="utf-8"?>
<!-- Generator: Adobe Illustrator 22.1.0, SVG Export Plug-In . SVG Version: 6.00 Build 0)  -->
<svg version="1.1" id="Capa_1" xmlns="http://www.w3.org/2000/svg" xmlns:xlink="http://www.w3.org/1999/xlink" x="0px" y="0px"
	 viewBox="0 0 119 28.6" style="enable-background:new 0 0 119 28.6;" xml:space="preserve">
<style type="text/css">
	.st0{stroke:#FFFFFF;stroke-miterlimit:10;}
	.st1{fill:#FFFFFF;}
	.st2{enable-background:new    ;}
</style>
<g>
	<path class="st1" d="M31,11h12.1v2.1h-4.8v12.1h-2.6V13.1H31V11z M42.6,14.9h2.2v2l0,0c0.1-0.3,0.2-0.5,0.4-0.8
		c0.2-0.3,0.4-0.5,0.7-0.7s0.6-0.4,1-0.5c0.3-0.1,0.7-0.2,1.1-0.2c0.3,0,0.5,0,0.6,0s0.2,0,0.3,0v2.2c-0.2,0-0.3-0.1-0.5-0.1
		s-0.3,0-0.5,0c-0.4,0-0.8,0.1-1.1,0.2c-0.4,0.2-0.7,0.4-0.9,0.7c-0.3,0.3-0.5,0.7-0.6,1.1c-0.2,0.4-0.2,0.9-0.2,1.5v4.9h-2.4
		C42.5,25.1,42.6,14.9,42.6,14.9z M59.8,25.2h-2.3v-1.4l0,0c-0.3,0.5-0.7,0.9-1.3,1.2c-0.5,0.3-1.1,0.5-1.8,0.5
		c-1.4,0-2.4-0.3-3.1-1c-0.6-0.7-1-1.7-1-3V15h2.4v6.3c0,0.9,0.2,1.6,0.6,1.9c0.4,0.4,0.9,0.6,1.5,0.6c0.5,0,0.9-0.1,1.3-0.2
		c0.3-0.2,0.6-0.3,0.8-0.6c0.2-0.2,0.4-0.5,0.5-0.9c0.1-0.3,0.1-0.7,0.1-1.1v-6h2.4L59.8,25.2C59.9,25.2,59.8,25.2,59.8,25.2z
		 M63.9,21.9c0.1,0.7,0.3,1.1,0.8,1.4s1,0.4,1.7,0.4c0.2,0,0.5,0,0.8-0.1c0.3,0,0.5-0.1,0.8-0.2c0.2-0.1,0.5-0.2,0.6-0.4
		c0.2-0.2,0.2-0.4,0.2-0.7c0-0.3-0.1-0.5-0.3-0.7c-0.2-0.2-0.5-0.3-0.8-0.5c-0.4-0.1-0.7-0.2-1.1-0.3c-0.4-0.1-0.8-0.2-1.3-0.3
		c-0.4-0.1-0.9-0.2-1.3-0.3c-0.4-0.1-0.8-0.3-1.1-0.5s-0.6-0.5-0.8-0.9s-0.3-0.8-0.3-1.3c0-0.6,0.1-1,0.4-1.4
		c0.3-0.4,0.7-0.7,1.1-0.9c0.5-0.2,1-0.4,1.5-0.5s1-0.1,1.5-0.1c0.6,0,1.1,0.1,1.6,0.2c0.5,0.1,1,0.3,1.4,0.6c0.4,0.2,0.8,0.6,1,1
		c0.3,0.4,0.4,0.9,0.5,1.5h-2.5c-0.1-0.5-0.4-0.9-0.8-1.1s-0.9-0.3-1.4-0.3c-0.2,0-0.4,0-0.6,0s-0.4,0.1-0.7,0.2
		c-0.2,0.1-0.4,0.2-0.5,0.3c-0.1,0.1-0.2,0.3-0.2,0.5c0,0.3,0.1,0.5,0.3,0.7c0.2,0.2,0.5,0.3,0.8,0.4c0.4,0.1,0.7,0.2,1.1,0.3
		c0.4,0.1,0.9,0.2,1.3,0.3c0.4,0.1,0.9,0.2,1.3,0.3c0.4,0.1,0.8,0.3,1.1,0.5c0.3,0.2,0.6,0.5,0.8,0.9s0.3,0.8,0.3,1.3
		c0,0.6-0.1,1.1-0.4,1.6c-0.3,0.4-0.7,0.8-1.1,1c-0.5,0.3-1,0.5-1.6,0.6s-1.1,0.2-1.7,0.2s-1.3-0.1-1.9-0.2c-0.5-0.1-1-0.4-1.5-0.7
		c-0.4-0.3-0.8-0.7-1-1.1s-0.4-1-0.4-1.6L63.9,21.9L63.9,21.9L63.9,21.9L63.9,21.9z M71.8,14.9h1.8v-3.1H76v3.1h2.1v1.7H76v5.5
		c0,0.2,0,0.4,0,0.6s0.1,0.3,0.1,0.4c0.1,0.1,0.2,0.2,0.3,0.3c0.2,0.1,0.4,0.1,0.6,0.1s0.3,0,0.5,0s0.3,0,0.5-0.1v1.8
		c-0.3,0-0.5,0.1-0.8,0.1s-0.5,0-0.8,0c-0.6,0-1.1-0.1-1.5-0.2c-0.3-0.1-0.6-0.3-0.9-0.5c-0.2-0.2-0.4-0.5-0.4-0.8
		c-0.1-0.3-0.1-0.7-0.1-1.1v-6.1h-1.8L71.8,14.9L71.8,14.9L71.8,14.9z M79.8,14.9H82v1.4l0,0c0.3-0.6,0.8-1,1.4-1.3s1.3-0.4,1.9-0.4
		c0.9,0,1.6,0.1,2.2,0.4c0.6,0.3,1.2,0.7,1.6,1.2s0.7,1.1,0.9,1.7c0.2,0.7,0.3,1.4,0.3,2.1s-0.1,1.4-0.3,2c-0.2,0.6-0.5,1.2-0.9,1.7
		s-0.9,0.9-1.5,1.2c-0.6,0.3-1.3,0.5-2.1,0.5c-0.3,0-0.7,0-1-0.1s-0.7-0.2-1-0.3c-0.3-0.1-0.6-0.3-0.9-0.5s-0.5-0.4-0.7-0.7l0,0V29
		h-2.4L79.8,14.9L79.8,14.9L79.8,14.9z M88.1,20.1c0-0.5-0.1-0.9-0.2-1.3s-0.3-0.8-0.6-1.2c-0.3-0.3-0.6-0.6-0.9-0.8
		c-0.4-0.2-0.8-0.3-1.3-0.3c-1,0-1.8,0.3-2.3,1S82,19.1,82,20.1c0,0.5,0.1,1,0.2,1.4s0.3,0.8,0.6,1.1c0.5,0.7,1.4,1.1,2.2,1
		c0.6,0,1-0.1,1.4-0.3c0.4-0.2,0.7-0.5,0.9-0.8c0.2-0.3,0.4-0.7,0.5-1.2C88,21,88.1,20.5,88.1,20.1L88.1,20.1z M92.3,11h2.4v2.1
		h-2.4V11z M92.3,14.9h2.4v10.3h-2.4V14.9z M96.8,11h2.4v14.2h-2.4V11z M106.5,25.5c-0.9,0-1.6-0.1-2.3-0.4
		c-0.7-0.3-1.2-0.6-1.7-1.1s-0.8-1.1-1.1-1.7c-0.3-0.7-0.4-1.4-0.4-2.2c0-0.8,0.1-1.5,0.4-2.2c0.2-0.6,0.6-1.2,1.1-1.7
		s1.1-0.9,1.7-1.1c0.7-0.3,1.5-0.4,2.3-0.4c0.9,0,1.6,0.1,2.3,0.4c0.6,0.2,1.2,0.6,1.7,1.1s0.8,1.1,1.1,1.7c0.2,0.7,0.4,1.4,0.4,2.2
		c0,0.8-0.1,1.5-0.4,2.2s-0.6,1.2-1.1,1.7s-1.1,0.9-1.7,1.1C108.1,25.3,107.3,25.5,106.5,25.5L106.5,25.5z M106.5,23.7
		c0.5,0,1-0.1,1.4-0.3c0.4-0.2,0.7-0.5,1-0.8s0.4-0.7,0.6-1.2c0.2-0.9,0.2-1.8,0-2.6c-0.1-0.4-0.3-0.8-0.6-1.2
		c-0.3-0.3-0.6-0.6-1-0.8c-0.4-0.2-0.9-0.3-1.4-0.3s-1,0.1-1.4,0.3c-0.4,0.2-0.7,0.5-1,0.8s-0.4,0.7-0.6,1.2c-0.2,0.9-0.2,1.8,0,2.6
		c0.1,0.4,0.3,0.8,0.6,1.2c0.3,0.3,0.6,0.6,1,0.8S106,23.7,106.5,23.7z M112.7,14.9h1.8v-3.1h2.4v3.1h2.1v1.7h-2.1v5.5
		c0,0.2,0,0.4,0,0.6s0.1,0.3,0.1,0.4c0.1,0.1,0.2,0.2,0.3,0.3c0.2,0.1,0.4,0.1,0.6,0.1s0.3,0,0.5,0s0.3,0,0.5-0.1v1.8
		c-0.3,0-0.5,0.1-0.8,0.1s-0.5,0-0.8,0c-0.6,0-1.1-0.1-1.5-0.2c-0.3-0.1-0.6-0.3-0.9-0.5c-0.2-0.2-0.4-0.5-0.4-0.8
		c-0.1-0.3-0.1-0.7-0.1-1.1v-6.1h-1.8v-1.7H112.7z"/>
	<path class="st1" d="M29,9.9H17.9L14.5,0l-3.4,9.9H0L9,16L5.5,26l9-6.1l9,6.1L20,16.1L29,9.9z"/>
</g>
</svg>
