<svg width="245" height="28" viewBox="0 0 245 28" fill="none" xmlns="http://www.w3.org/2000/svg">
<path d="M146.461 3.76917H123.738V26.4922H146.461V3.76917Z" fill="#00B67A"/>
<path d="M171.122 3.76917H148.399V26.4922H171.122V3.76917Z" fill="#00B67A"/>
<path d="M195.784 3.76917H173.061V26.4922H195.784V3.76917Z" fill="#00B67A"/>
<path d="M135.153 19.0615L138.599 18.1999L139.999 22.6153L135.153 19.0615ZM143.123 13.3538H136.984L135.153 7.64612L133.323 13.3538H127.184L132.138 16.9076L130.307 22.6153L135.261 19.0615L138.276 16.9076L143.123 13.3538Z" fill="white"/>
<path d="M159.815 19.0615L163.261 18.1999L164.661 22.6153L159.815 19.0615ZM167.784 13.3538H161.646L159.815 7.64612L157.984 13.3538H151.846L156.8 16.9076L154.969 22.6153L159.923 19.0615L162.938 16.9076L167.784 13.3538Z" fill="white"/>
<path d="M184.476 19.0615L187.922 18.1999L189.322 22.6153L184.476 19.0615ZM192.445 13.3538H186.307L184.476 7.64612L182.645 13.3538H176.507L181.461 16.9076L179.63 22.6153L184.584 19.0615L187.599 16.9076L192.445 13.3538Z" fill="white"/>
<path d="M220.445 3.76904H197.722V26.4921H220.445V3.76904Z" fill="#00B67A"/>
<path d="M209.138 19.0615L212.584 18.1999L213.984 22.6153L209.138 19.0615ZM217.107 13.3538H210.968L209.138 7.64612L207.307 13.3538H201.168L206.122 16.9076L204.292 22.6153L209.245 19.0615L212.261 16.9076L217.107 13.3538Z" fill="white"/>
<path d="M244.676 3.76917H221.953V26.4922H244.676V3.76917Z" fill="#00B67A"/>
<path d="M233.368 19.0615L236.814 18.1999L238.214 22.6153L233.368 19.0615ZM241.337 13.3538H235.199L233.368 7.64612L231.537 13.3538H225.399L230.353 16.9076L228.522 22.6153L233.476 19.0615L236.491 16.9076L241.337 13.3538Z" fill="white"/>
<path d="M30.0459 10.6616H41.7843V12.7078H37.1536V24.3385H34.6767V12.7078H30.0459V10.6616ZM41.2459 14.4308H43.3997V16.3693C43.5074 16.0462 43.6151 15.8308 43.8305 15.6155C44.0459 15.4001 44.2613 15.077 44.5843 14.9693C44.9074 14.7539 45.1228 14.5385 45.5536 14.4308C45.8766 14.3232 46.1997 14.2155 46.5228 14.2155C46.8459 14.2155 46.9536 14.2155 47.0613 14.2155C47.1689 14.2155 47.2766 14.2155 47.3843 14.2155V16.3693C47.2766 16.3693 47.0613 16.2616 46.8459 16.2616C46.6305 16.2616 46.5228 16.2616 46.3074 16.2616C45.8766 16.2616 45.5536 16.3693 45.2305 16.477C44.9074 16.5847 44.5843 16.8001 44.3689 17.1231C44.1536 17.4462 43.9382 17.7693 43.7228 18.2001C43.5074 18.6308 43.5074 19.1693 43.5074 19.7078V24.4462H41.2459V14.4308ZM57.9382 24.4462H55.6766V23.0462C55.3535 23.5847 54.9228 23.9078 54.3843 24.2308C53.8459 24.5539 53.1997 24.6616 52.6612 24.6616C51.2612 24.6616 50.292 24.3385 49.6459 23.6924C48.9997 23.0462 48.6766 22.077 48.6766 20.7847V14.4308H50.9382V20.5693C50.9382 21.4308 51.1536 22.077 51.4766 22.4001C51.7997 22.7231 52.3382 22.9385 52.9843 22.9385C53.4151 22.9385 53.8459 22.8308 54.1689 22.7231C54.492 22.6154 54.8151 22.4001 54.9228 22.1847C55.1382 21.9693 55.2459 21.6462 55.3535 21.3231C55.4612 21.0001 55.4612 20.677 55.4612 20.2462V14.4308H57.7228L57.9382 24.4462ZM61.8151 21.2154C61.9228 21.8616 62.1381 22.2924 62.5689 22.6154C63.1074 22.8308 63.6458 22.9385 64.1843 22.9385C64.3997 22.9385 64.6151 22.9385 64.9381 22.8308C65.2612 22.8308 65.4766 22.7231 65.692 22.6154C65.9074 22.5078 66.1228 22.4001 66.3381 22.1847C66.4458 21.9693 66.5535 21.7539 66.5535 21.5385C66.5535 21.2154 66.4458 21.0001 66.2304 20.8924C66.0151 20.677 65.7997 20.5693 65.4766 20.4616C65.1535 20.3539 64.8304 20.2462 64.3997 20.1385C63.9689 20.0308 63.5381 19.9231 63.2151 19.9231C62.7843 19.8155 62.3535 19.7078 61.9228 19.6001C61.492 19.4924 61.1689 19.277 60.8458 19.0616C60.5228 18.8462 60.3074 18.5231 60.092 18.2001C59.8766 17.877 59.7689 17.4462 59.7689 16.9078C59.7689 16.3693 59.8766 15.9385 60.1997 15.5078C60.5228 15.1847 60.8458 14.8616 61.2766 14.6462C61.7074 14.4308 62.1381 14.2155 62.6766 14.2155C63.2151 14.1078 63.6458 14.1078 64.1843 14.1078C64.7228 14.1078 65.2612 14.2155 65.692 14.3232C66.1228 14.4308 66.6612 14.6462 66.9843 14.8616C67.4151 15.077 67.7381 15.4001 67.9535 15.8308C68.2766 16.2616 68.3843 16.6924 68.492 17.2308H66.1228C66.0151 16.6924 65.7997 16.3693 65.3689 16.1539C64.9381 15.9385 64.5074 15.8308 63.9689 15.8308C63.8612 15.8308 63.6458 15.8308 63.4305 15.8308C63.2151 15.8308 62.9997 15.9385 62.7843 15.9385C62.5689 16.0462 62.4612 16.1539 62.2458 16.2616C62.1381 16.477 62.0305 16.6924 62.0305 16.9078C62.0305 17.2308 62.1381 17.3385 62.3535 17.5539C62.5689 17.7693 62.7843 17.877 63.1074 17.9847C63.4305 18.0924 63.7535 18.2001 64.1843 18.3078C64.6151 18.4155 65.0458 18.5231 65.4766 18.5231C65.9074 18.6308 66.3381 18.7385 66.6612 18.8462C67.092 18.9539 67.4151 19.1693 67.7381 19.3847C68.0612 19.6001 68.2766 19.9231 68.492 20.2462C68.7074 20.5693 68.8151 21.0001 68.8151 21.4308C68.8151 21.9693 68.7074 22.5078 68.3843 22.9385C68.0612 23.3693 67.7381 23.6924 67.3074 23.9078C66.8766 24.1231 66.3381 24.3385 65.7997 24.4462C65.2612 24.5539 64.7228 24.6616 64.1843 24.6616C63.5381 24.6616 62.892 24.5539 62.3535 24.4462C61.8151 24.3385 61.2766 24.1231 60.8458 23.8001C60.4151 23.477 60.092 23.1539 59.8766 22.7231C59.6612 22.2924 59.5535 21.7539 59.4458 21.2154H61.8151ZM69.4612 14.4308H71.1843V11.4155H73.4458V14.4308H75.492V16.0462H73.4458V21.3231C73.4458 21.5385 73.4458 21.7539 73.4458 21.9693C73.4458 22.1847 73.5535 22.2924 73.5535 22.4001C73.6612 22.5078 73.7689 22.6154 73.8766 22.6154C73.9843 22.7231 74.1997 22.7231 74.5227 22.7231C74.6304 22.7231 74.8458 22.7231 74.9535 22.7231C75.0612 22.7231 75.2766 22.7231 75.3843 22.6154V24.3385C75.1689 24.3385 74.8458 24.4462 74.6304 24.4462C74.415 24.4462 74.1997 24.4462 73.8766 24.4462C73.2304 24.4462 72.7997 24.3385 72.3689 24.2308C71.9381 24.1231 71.9381 24.0154 71.7227 23.8001C71.5074 23.5847 71.3997 23.3693 71.292 23.0462C71.1843 22.7231 71.1843 22.4001 71.1843 21.9693V16.1539H69.4612V14.4308ZM77.215 14.4308H79.3689V15.8308C79.692 15.2924 80.1227 14.8616 80.7689 14.5385C81.415 14.2155 81.9535 14.1078 82.7073 14.1078C83.5689 14.1078 84.215 14.2155 84.8612 14.5385C85.5073 14.8616 85.9381 15.1847 86.3689 15.7231C86.7996 16.1539 87.1227 16.8001 87.2304 17.4462C87.3381 18.0924 87.5535 18.7385 87.5535 19.4924C87.5535 20.1385 87.4458 20.7847 87.2304 21.4308C87.015 22.077 86.7996 22.6154 86.3689 23.0462C86.0458 23.477 85.5073 23.9078 84.9689 24.2308C84.4304 24.5539 83.7843 24.6616 82.9227 24.6616C82.5997 24.6616 82.2766 24.6616 81.9535 24.5539C81.6304 24.4462 81.3073 24.4462 80.9843 24.2308C80.6612 24.0154 80.3381 23.9078 80.1227 23.6924C79.7997 23.477 79.692 23.2616 79.4766 23.0462V28.0001H77.215V14.4308ZM85.292 19.4924C85.292 19.0616 85.1843 18.6308 85.0766 18.2001C84.9689 17.7693 84.7535 17.4462 84.5381 17.1231C84.3227 16.8001 83.9996 16.5847 83.6766 16.3693C83.3535 16.1539 82.9227 16.0462 82.3843 16.0462C81.415 16.0462 80.6612 16.3693 80.2304 17.0155C79.7997 17.6616 79.4766 18.5231 79.4766 19.6001C79.4766 20.1385 79.5843 20.5693 79.692 21.0001C79.7997 21.4308 80.015 21.7539 80.2304 22.077C80.4458 22.4001 80.7689 22.6154 81.1997 22.8308C81.6304 23.0462 81.9535 23.1539 82.492 23.1539C83.0304 23.1539 83.4612 23.0462 83.7843 22.8308C84.1073 22.6154 84.4304 22.4001 84.6458 22.077C84.8612 21.7539 85.0766 21.4308 85.1843 21.0001C85.1843 20.3539 85.292 19.9231 85.292 19.4924ZM89.3843 10.6616H91.6458V12.7078H89.3843V10.6616ZM89.3843 14.4308H91.6458V24.3385H89.3843V14.4308ZM93.6919 10.6616H95.9535V24.4462H93.6919V10.6616ZM103.061 24.6616C102.2 24.6616 101.446 24.5539 100.8 24.2308C100.153 23.9078 99.615 23.5847 99.1842 23.1539C98.7535 22.7231 98.4304 22.077 98.215 21.5385C97.9996 20.8924 97.8919 20.1385 97.8919 19.3847C97.8919 18.6308 97.9996 17.9847 98.215 17.3385C98.4304 16.6924 98.7535 16.1539 99.1842 15.7231C99.615 15.2924 100.153 14.8616 100.8 14.6462C101.446 14.4308 102.2 14.2155 103.061 14.2155C103.923 14.2155 104.677 14.3232 105.323 14.6462C105.969 14.8616 106.507 15.2924 106.938 15.7231C107.369 16.1539 107.692 16.8001 107.907 17.3385C108.123 17.9847 108.23 18.6308 108.23 19.3847C108.23 20.1385 108.123 20.8924 107.907 21.5385C107.692 22.1847 107.369 22.7231 106.938 23.1539C106.507 23.5847 105.969 24.0154 105.323 24.2308C104.677 24.4462 103.923 24.6616 103.061 24.6616ZM103.061 22.9385C103.6 22.9385 104.03 22.8308 104.353 22.6154C104.784 22.4001 105 22.1847 105.323 21.8616C105.538 21.5385 105.753 21.1078 105.861 20.7847C105.969 20.3539 106.077 19.9231 106.077 19.4924C106.077 19.0616 105.969 18.6308 105.861 18.2001C105.753 17.7693 105.538 17.4462 105.323 17.1231C105.107 16.8001 104.784 16.5847 104.353 16.3693C103.923 16.1539 103.492 16.0462 103.061 16.0462C102.523 16.0462 102.092 16.1539 101.769 16.3693C101.338 16.5847 101.123 16.8001 100.8 17.1231C100.584 17.4462 100.369 17.7693 100.261 18.2001C100.153 18.6308 100.046 19.0616 100.046 19.4924C100.046 19.9231 100.153 20.3539 100.261 20.7847C100.369 21.2154 100.584 21.5385 100.8 21.8616C101.015 22.1847 101.338 22.5078 101.769 22.6154C102.092 22.8308 102.63 22.9385 103.061 22.9385ZM109.092 14.4308H110.815V11.4155H113.077V14.4308H115.123V16.0462H113.077V21.3231C113.077 21.5385 113.077 21.7539 113.077 21.9693C113.077 22.1847 113.184 22.2924 113.184 22.4001C113.292 22.5078 113.4 22.6154 113.507 22.6154C113.615 22.7231 113.83 22.7231 114.153 22.7231C114.261 22.7231 114.477 22.7231 114.584 22.7231C114.692 22.7231 114.907 22.7231 115.015 22.6154V24.3385C114.8 24.3385 114.477 24.4462 114.261 24.4462C114.046 24.4462 113.83 24.4462 113.507 24.4462C112.861 24.4462 112.43 24.3385 112 24.2308C111.569 24.1231 111.353 23.9077 111.138 23.8001C110.923 23.5847 110.815 23.3693 110.707 23.0462C110.6 22.7231 110.6 22.4001 110.6 21.9693V16.1539H108.877V14.4308H109.092Z" fill="#00B67A"/>
<path fill-rule="evenodd" clip-rule="evenodd" d="M28.1076 9.69229H17.3384L14 0L10.6615 9.69229L0 9.5846L8.61537 15.6154L5.27691 25.2L14 19.2769L22.723 25.2L19.3846 15.6154L28.1076 9.69229Z" fill="#00B67A"/>
</svg>
